<svg xmlns="http://www.w3.org/2000/svg" xmlns:xlink="http://www.w3.org/1999/xlink" width="500" zoomAndPan="magnify" viewBox="0 0 375 374.999991" height="500" preserveAspectRatio="xMidYMid meet" version="1.0"><defs><clipPath id="97d61f25a7"><path d="M 42.40625 0 L 332.65625 0 L 332.65625 371.917969 L 42.40625 371.917969 Z M 42.40625 0 " clip-rule="nonzero"/></clipPath></defs><path fill="#9ad3f2" d="M 187.496094 368.203125 C 109.46875 368.203125 45.984375 304.714844 45.984375 226.6875 L 45.984375 58.078125 C 45.984375 56.597656 46.910156 55.257812 48.3125 54.738281 L 186.269531 4.042969 C 186.660156 3.894531 187.085938 3.828125 187.496094 3.828125 C 187.90625 3.828125 188.332031 3.894531 188.726562 4.042969 L 326.679688 54.738281 C 328.082031 55.257812 329.011719 56.597656 329.011719 58.078125 L 329.011719 226.6875 C 329.011719 304.714844 265.523438 368.203125 187.496094 368.203125 " fill-opacity="1" fill-rule="nonzero"/><g clip-path="url(#97d61f25a7)"><path fill="#292626" d="M 187.496094 0.261719 C 186.660156 0.261719 185.828125 0.40625 185.039062 0.695312 L 47.085938 51.382812 C 44.28125 52.421875 42.421875 55.101562 42.421875 58.078125 L 42.421875 226.6875 C 42.421875 306.683594 107.5 371.761719 187.496094 371.761719 C 267.492188 371.761719 332.570312 306.683594 332.570312 226.6875 L 332.570312 58.078125 C 332.570312 55.101562 330.710938 52.421875 327.90625 51.382812 L 189.953125 0.695312 C 189.167969 0.40625 188.332031 0.261719 187.496094 0.261719 Z M 187.496094 7.390625 L 325.449219 58.078125 L 325.449219 226.6875 C 325.449219 302.871094 263.679688 364.625 187.496094 364.625 C 111.3125 364.625 49.542969 302.871094 49.542969 226.6875 L 49.542969 58.078125 L 187.496094 7.390625 " fill-opacity="1" fill-rule="nonzero"/></g><path fill="#76b9dc" d="M 177.996094 290.488281 C 124.640625 290.488281 77.570312 263.628906 49.542969 222.703125 L 49.542969 226.6875 C 49.542969 302.871094 111.3125 364.625 187.496094 364.625 C 263.679688 364.625 325.449219 302.871094 325.449219 226.6875 L 325.449219 184.625 C 304.703125 246.175781 246.523438 290.488281 177.996094 290.488281 " fill-opacity="1" fill-rule="nonzero"/><path fill="#76b9dc" d="M 187.496094 341.59375 C 121.410156 341.59375 67.644531 287.8125 67.644531 221.726562 L 67.644531 79.597656 C 67.644531 78.101562 68.574219 76.761719 69.976562 76.242188 L 186.269531 33.519531 C 186.660156 33.359375 187.085938 33.296875 187.496094 33.296875 C 187.90625 33.296875 188.332031 33.359375 188.726562 33.519531 L 305.015625 76.242188 C 306.417969 76.761719 307.347656 78.101562 307.347656 79.597656 L 307.347656 221.726562 C 307.347656 287.8125 253.582031 341.59375 187.496094 341.59375 " fill-opacity="1" fill-rule="nonzero"/><path fill="#292626" d="M 187.496094 29.722656 C 186.660156 29.722656 185.828125 29.878906 185.039062 30.164062 L 68.746094 72.902344 C 65.941406 73.925781 64.066406 76.605469 64.066406 79.597656 L 64.066406 221.726562 C 64.066406 289.78125 119.441406 345.15625 187.496094 345.15625 C 255.550781 345.15625 310.925781 289.78125 310.925781 221.726562 L 310.925781 79.597656 C 310.925781 76.605469 309.050781 73.925781 306.246094 72.902344 L 189.953125 30.164062 C 189.167969 29.878906 188.332031 29.722656 187.496094 29.722656 Z M 187.496094 36.859375 L 303.789062 79.597656 L 303.789062 221.726562 C 303.789062 285.953125 251.722656 338.019531 187.496094 338.019531 C 123.269531 338.019531 71.203125 285.953125 71.203125 221.726562 L 71.203125 79.597656 L 187.496094 36.859375 " fill-opacity="1" fill-rule="nonzero"/><path fill="#aade8d" d="M 163.457031 251.105469 L 121.410156 203.121094 L 140.722656 186.203125 L 165.222656 214.164062 L 257.253906 127.285156 L 274.867188 145.96875 L 163.457031 251.105469 " fill-opacity="1" fill-rule="nonzero"/><path fill="#292626" d="M 163.457031 251.105469 L 166.148438 248.757812 L 126.4375 203.453125 L 140.394531 191.226562 L 162.527344 216.511719 C 163.171875 217.234375 164.070312 217.675781 165.046875 217.726562 C 166.007812 217.773438 166.953125 217.425781 167.664062 216.746094 L 257.09375 132.324219 L 269.824219 145.808594 L 161.015625 248.523438 L 163.457031 251.105469 L 166.148438 248.757812 L 163.457031 251.105469 L 165.898438 253.707031 L 277.308594 148.550781 C 277.984375 147.90625 278.394531 147.007812 278.425781 146.0625 C 278.457031 145.117188 278.09375 144.1875 277.449219 143.511719 L 259.835938 124.84375 C 259.191406 124.164062 258.292969 123.753906 257.347656 123.722656 C 256.402344 123.707031 255.472656 124.054688 254.796875 124.699219 L 165.457031 209.027344 L 143.402344 183.855469 C 142.109375 182.375 139.859375 182.230469 138.359375 183.523438 L 119.0625 200.425781 C 117.582031 201.734375 117.441406 203.988281 118.730469 205.46875 L 160.777344 253.453125 C 161.410156 254.195312 162.324219 254.636719 163.285156 254.667969 C 164.261719 254.714844 165.207031 254.367188 165.898438 253.707031 L 163.457031 251.105469 " fill-opacity="1" fill-rule="nonzero"/></svg>